<svg xmlns:xlink="http://www.w3.org/1999/xlink" xmlns="http://www.w3.org/2000/svg" width="783" height="740"><g transform="translate(371.92499999999995,370)"><path class="link link-0" d="M0,0C-1.1480683645507104,24.14663560134137,6.245112426888586,-23.35330046501287,12.490224853777171,-46.70660093002574" stroke="#5D969F" fill="none"></path><path class="link link-1" d="M0,0C-1.1480683645507104,24.14663560134137,4.707295903292836,23.71116692852739,9.414591806585673,47.42233385705478" stroke="#7DA6D2" fill="none"></path><path class="link link-2" d="M0,0C-1.1480683645507104,24.14663560134137,-17.06814049792581,-17.118897504708457,-34.13628099585162,-34.237795009416914" stroke="#7AB439" fill="none"></path><path class="link link-3" d="M0,0C-1.1480683645507104,24.14663560134137,-10.154855307165297,-21.937570182775154,-20.309710614330594,-43.87514036555031" stroke="#8C9292" fill="none"></path><path class="link link-4" d="M0,0C-1.1480683645507104,24.14663560134137,-4.001252172140332,-23.840470903247503,-8.002504344280664,-47.68094180649501" fill="none"></path><path class="link link-0" d="M12.490224853777171,-46.70660093002574C18.735337280665757,-70.05990139503861,10.301541751511403,-71.78635583482912,13.735389002015205,-95.7151411131055" stroke="#5D969F" fill="none"></path><path class="link link-0" d="M12.490224853777171,-46.70660093002574C18.735337280665757,-70.05990139503861,26.905135632760928,-67.34624208584749,35.87351417701457,-89.79498944779665" stroke="#5D969F" fill="none"></path><path class="link link-1" d="M9.414591806585673,47.42233385705478C14.121887709878507,71.13350078558217,70.11522458323535,18.52722127425771,93.48696611098046,24.70296169901028" stroke="#7DA6D2" fill="none"></path><path class="link link-1" d="M9.414591806585673,47.42233385705478C14.121887709878507,71.13350078558217,-57.720569477120755,43.906019014933634,-76.96075930282767,58.54135868657818" stroke="#7DA6D2" fill="none"></path><path class="link link-2" d="M-34.13628099585162,-34.237795009416914C-51.20442149377743,-51.35669251412537,-60.46362236497293,-40.04438808383497,-80.61816315329723,-53.392517445113285" stroke="#7AB439" fill="none"></path><path class="link link-2" d="M-34.13628099585162,-34.237795009416914C-51.20442149377743,-51.35669251412537,-39.864672988783354,-60.58226220603027,-53.15289731837781,-80.77634960804036" stroke="#7AB439" fill="none"></path><path class="link link-3" d="M-20.309710614330594,-43.87514036555031C-30.46456592149589,-65.81271054832546,-30.46456592149589,-65.81271054832546,-40.61942122866119,-87.75028073110062" stroke="#8C9292" fill="none"></path><path class="link link-4" d="M-8.002504344280664,-47.68094180649501C-12.003756516420996,-71.5214127097425,-20.39416458260311,-69.59511978206902,-27.192219443470815,-92.7934930427587" fill="none"></path><path class="link link-4" d="M-8.002504344280664,-47.68094180649501C-12.003756516420996,-71.5214127097425,-12.003756516421062,-71.5214127097425,-16.005008688561414,-95.36188361299" fill="none"></path><path class="link link-4" d="M-8.002504344280664,-47.68094180649501C-12.003756516420996,-71.5214127097425,-3.444205093652085,-72.43990680402412,-4.59227345820278,-96.58654240536548" fill="none"></path><path class="link link-0" d="M13.735389002015205,-95.7151411131055C17.169236252519006,-119.64392639138187,5.740341822753513,-120.73317800670685,6.888410187304216,-144.87981360804824" stroke="#5D969F" fill="none"></path><path class="link link-0" d="M13.735389002015205,-95.7151411131055C17.169236252519006,-119.64392639138187,11.46772903268659,-120.32432416878181,13.761274839223908,-144.3891890025382" stroke="#5D969F" fill="none"></path><path class="link link-0" d="M13.735389002015205,-95.7151411131055C17.169236252519006,-119.64392639138187,17.169236252519006,-119.64392639138187,20.603083503022805,-143.57271166965825" stroke="#5D969F" fill="none"></path><path class="link link-0" d="M13.735389002015205,-95.7151411131055C17.169236252519006,-119.64392639138187,22.831996510072614,-118.69352017361878,27.398395812087138,-142.43222420834252" stroke="#5D969F" fill="none"></path><path class="link link-0" d="M13.735389002015205,-95.7151411131055C17.169236252519006,-119.64392639138187,28.44323027602732,-117.47525036068703,34.13187633123279,-140.97030043282444" stroke="#5D969F" fill="none"></path><path class="link link-0" d="M35.87351417701457,-89.79498944779665C44.84189272126821,-112.24373680974581,39.46061021022961,-114.24671565378821,47.35273225227553,-137.09605878454585" stroke="#5D969F" fill="none"></path><path class="link link-0" d="M35.87351417701457,-89.79498944779665C44.84189272126821,-112.24373680974581,44.84189272126821,-112.24373680974581,53.810271265521855,-134.69248417169499" stroke="#5D969F" fill="none"></path><path class="link link-0" d="M35.87351417701457,-89.79498944779665C44.84189272126821,-112.24373680974581,50.1219775377662,-109.98745002746847,60.146373045319436,-131.98494003296216" stroke="#5D969F" fill="none"></path><path class="link link-1" d="M93.48696611098046,24.70296169901028C116.85870763872558,30.87870212376285,60.33114567782447,-104.73588046625825,72.39737481338938,-125.6830565595099" stroke="#7DA6D2" fill="none"></path><path class="link link-1" d="M93.48696611098046,24.70296169901028C116.85870763872558,30.87870212376285,65.23718928971674,-101.7524492551353,78.28462714766009,-122.10293910616237" stroke="#7DA6D2" fill="none"></path><path class="link link-1" d="M93.48696611098046,24.70296169901028C116.85870763872558,30.87870212376285,69.99600777898834,-98.53938649517268,83.99520933478601,-118.24726379420721" stroke="#7DA6D2" fill="none"></path><path class="link link-1" d="M93.48696611098046,24.70296169901028C116.85870763872558,30.87870212376285,74.59686160208682,-95.10394331971898,89.51623392250418,-114.12473198366277" stroke="#7DA6D2" fill="none"></path><path class="link link-1" d="M93.48696611098046,24.70296169901028C116.85870763872558,30.87870212376285,79.02936770487331,-91.45387272286037,94.83524124584797,-109.74464726743244" stroke="#7DA6D2" fill="none"></path><path class="link link-1" d="M93.48696611098046,24.70296169901028C116.85870763872558,30.87870212376285,83.28352295475423,-87.59741206272102,99.94022754570507,-105.11689447526521" stroke="#7DA6D2" fill="none"></path><path class="link link-1" d="M93.48696611098046,24.70296169901028C116.85870763872558,30.87870212376285,87.3497267154187,-83.54326447166694,104.81967205850243,-100.25191736600033" stroke="#7DA6D2" fill="none"></path><path class="link link-1" d="M93.48696611098046,24.70296169901028C116.85870763872558,30.87870212376285,91.21880251323589,-79.30057921536566,109.46256301588306,-95.16069505843879" stroke="#7DA6D2" fill="none"></path><path class="link link-1" d="M93.48696611098046,24.70296169901028C116.85870763872558,30.87870212376285,94.88201874641615,-74.87893104502727,113.85842249569937,-89.85471725403274" stroke="#7DA6D2" fill="none"></path><path class="link link-1" d="M93.48696611098046,24.70296169901028C116.85870763872558,30.87870212376285,98.33110839019956,-70.28829858942412,117.99733006823948,-84.34595830730895" stroke="#7DA6D2" fill="none"></path><path class="link link-1" d="M93.48696611098046,24.70296169901028C116.85870763872558,30.87870212376285,101.55828765360341,-65.53904183545224,121.8699451843241,-78.64685020254268" stroke="#7DA6D2" fill="none"></path><path class="link link-1" d="M93.48696611098046,24.70296169901028C116.85870763872558,30.87870212376285,104.55627354562294,-60.641878748057295,125.46752825474753,-72.77025449766876" stroke="#7DA6D2" fill="none"></path><path class="link link-1" d="M93.48696611098046,24.70296169901028C116.85870763872558,30.87870212376285,107.31830031124362,-55.607861082287116,128.78196037349235,-66.72943329874454" stroke="#7DA6D2" fill="none"></path><path class="link link-1" d="M93.48696611098046,24.70296169901028C116.85870763872558,30.87870212376285,109.83813470017255,-50.44834944205773,131.80576164020707,-60.53801933046928" stroke="#7DA6D2" fill="none"></path><path class="link link-1" d="M93.48696611098046,24.70296169901028C116.85870763872558,30.87870212376285,112.11009003383062,-45.1749876419198,134.53210804059674,-54.20998517030376" stroke="#7DA6D2" fill="none"></path><path class="link link-1" d="M93.48696611098046,24.70296169901028C116.85870763872558,30.87870212376285,114.12903903886001,-39.7996764296845,136.95484684663202,-47.7596117156214" stroke="#7DA6D2" fill="none"></path><path class="link link-1" d="M93.48696611098046,24.70296169901028C116.85870763872558,30.87870212376285,115.89042541818431,-34.33454662921113,139.06851050182118,-41.201455955053355" stroke="#7DA6D2" fill="none"></path><path class="link link-1" d="M93.48696611098046,24.70296169901028C116.85870763872558,30.87870212376285,117.39027413350865,-28.79193176396648,140.8683289602104,-34.550318116759776" stroke="#7DA6D2" fill="none"></path><path class="link link-1" d="M93.48696611098046,24.70296169901028C116.85870763872558,30.87870212376285,118.62520037605404,-23.184340223138605,142.35024045126485,-27.821208267766323" stroke="#7DA6D2" fill="none"></path><path class="link link-1" d="M93.48696611098046,24.70296169901028C116.85870763872558,30.87870212376285,119.59241720528138,-17.5244270331196,143.51090064633766,-21.02931243974352" stroke="#7DA6D2" fill="none"></path><path class="link link-1" d="M93.48696611098046,24.70296169901028C116.85870763872558,30.87870212376285,120.28974183836642,-11.824965298062146,144.34769020603972,-14.189958357674575" stroke="#7DA6D2" fill="none"></path><path class="link link-1" d="M93.48696611098046,24.70296169901028C116.85870763872558,30.87870212376285,120.71560057623154,-6.098817373962126,144.85872069147786,-7.318580848754551" stroke="#7DA6D2" fill="none"></path><path class="link link-1" d="M93.48696611098046,24.70296169901028C116.85870763872558,30.87870212376285,120.86903235501755,-0.35890584132068615,145.04283882602107,-0.43068700958482337" stroke="#7DA6D2" fill="none"></path><path class="link link-1" d="M93.48696611098046,24.70296169901028C116.85870763872558,30.87870212376285,120.74969091498072,5.381815658106157,144.89962909797686,6.458178789727388" stroke="#7DA6D2" fill="none"></path><path class="link link-1" d="M93.48696611098046,24.70296169901028C116.85870763872558,30.87870212376285,120.35784558192026,11.110391654656238,144.4294146983043,13.332469985587487" stroke="#7DA6D2" fill="none"></path><path class="link link-1" d="M93.48696611098046,24.70296169901028C116.85870763872558,30.87870212376285,119.69438065937275,16.81389408823516,143.6332567912473,20.176672905882192" stroke="#7DA6D2" fill="none"></path><path class="link link-1" d="M93.48696611098046,24.70296169901028C116.85870763872558,30.87870212376285,118.76079343294542,22.479451483932724,142.5129521195345,26.97534178071927" stroke="#7DA6D2" fill="none"></path><path class="link link-1" d="M93.48696611098046,24.70296169901028C116.85870763872558,30.87870212376285,117.55919079129154,28.094277999940324,141.07102894954986,33.71313359992839" stroke="#7DA6D2" fill="none"></path><path class="link link-1" d="M93.48696611098046,24.70296169901028C116.85870763872558,30.87870212376285,116.0922844713542,33.645702282214124,139.31074136562503,40.37484273865695" stroke="#7DA6D2" fill="none"></path><path class="link link-1" d="M93.48696611098046,24.70296169901028C116.85870763872558,30.87870212376285,114.36338493860832,39.12119606076622,137.23606192632997,46.94543527291947" stroke="#7DA6D2" fill="none"></path><path class="link link-1" d="M93.48696611098046,24.70296169901028C116.85870763872558,30.87870212376285,112.37639391611216,44.5084024230482,134.85167269933459,53.410082907657845" stroke="#7DA6D2" fill="none"></path><path class="link link-1" d="M93.48696611098046,24.70296169901028C116.85870763872558,30.87870212376285,110.13579557922827,49.795163700621146,132.16295469507392,59.754196440745375" stroke="#7DA6D2" fill="none"></path><path class="link link-1" d="M93.48696611098046,24.70296169901028C116.85870763872558,30.87870212376285,107.64664643588534,54.96954890617812,129.1759757230624,65.96345868741375" stroke="#7DA6D2" fill="none"></path><path class="link link-1" d="M93.48696611098046,24.70296169901028C116.85870763872558,30.87870212376285,104.91456391521915,60.019880659000066,125.89747669826298,72.02385679080008" stroke="#7DA6D2" fill="none"></path><path class="link link-1" d="M93.48696611098046,24.70296169901028C116.85870763872558,30.87870212376285,101.94571369034489,64.93476153808099,122.33485642841386,77.9217138456972" stroke="#7DA6D2" fill="none"></path><path class="link link-1" d="M93.48696611098046,24.70296169901028C116.85870763872558,30.87870212376285,98.74679576387081,69.7030998034492,118.49615491664497,83.64371976413905" stroke="#7DA6D2" fill="none"></path><path class="link link-1" d="M93.48696611098046,24.70296169901028C116.85870763872558,30.87870212376285,95.32502934755497,74.31413442763763,114.39003521706597,89.17696131316515" stroke="#7DA6D2" fill="none"></path><path class="link link-1" d="M93.48696611098046,24.70296169901028C116.85870763872558,30.87870212376285,91.68813657022767,78.75745938081354,110.0257638842732,94.50895125697625" stroke="#7DA6D2" fill="none"></path><path class="link link-1" d="M93.48696611098046,24.70296169901028C116.85870763872558,30.87870212376285,87.84432505074749,83.02304711476104,105.41319006089698,99.62765653771325" stroke="#7DA6D2" fill="none"></path><path class="link link-1" d="M93.48696611098046,24.70296169901028C116.85870763872558,30.87870212376285,83.8022693753198,87.10127119271885,100.56272325038375,104.52152543126262" stroke="#7DA6D2" fill="none"></path><path class="link link-1" d="M93.48696611098046,24.70296169901028C116.85870763872558,30.87870212376285,79.57109152097848,90.98292801400316,95.48530982517418,109.1795136168038" stroke="#7DA6D2" fill="none"></path><path class="link link-1" d="M93.48696611098046,24.70296169901028C116.85870763872558,30.87870212376285,75.16034026941107,94.65925758438824,90.19240832329328,113.59110910126589" stroke="#7DA6D2" fill="none"></path><path class="link link-1" d="M93.48696611098046,24.70296169901028C116.85870763872558,30.87870212376285,70.57996965758524,98.12196328537031,84.69596358910229,117.74635594244438" stroke="#7DA6D2" fill="none"></path><path class="link link-1" d="M93.48696611098046,24.70296169901028C116.85870763872558,30.87870212376285,65.84031651380886,101.36323059770088,79.00837981657064,121.63587671724106" stroke="#7DA6D2" fill="none"></path><path class="link link-1" d="M93.48696611098046,24.70296169901028C116.85870763872558,30.87870212376285,60.95207712991903,104.37574473693405,73.14249255590285,125.25089368432086" stroke="#7DA6D2" fill="none"></path><path class="link link-1" d="M93.48696611098046,24.70296169901028C116.85870763872558,30.87870212376285,55.92628312224574,107.15270716118947,67.11153974669489,128.58324859342736" stroke="#7DA6D2" fill="none"></path><path class="link link-1" d="M93.48696611098046,24.70296169901028C116.85870763872558,30.87870212376285,50.774276535826466,109.68785091387576,60.929131842991765,131.6254210966509" stroke="#7DA6D2" fill="none"></path><path class="link link-1" d="M93.48696611098046,24.70296169901028C116.85870763872558,30.87870212376285,45.507684248055675,111.97545476675003,54.60922109766681,134.37054572010004" stroke="#7DA6D2" fill="none"></path><path class="link link-1" d="M93.48696611098046,24.70296169901028C116.85870763872558,30.87870212376285,40.13839172953388,114.01035613139581,48.16607007544066,136.81242735767498" stroke="#7DA6D2" fill="none"></path><path class="link link-1" d="M93.48696611098046,24.70296169901028C116.85870763872558,30.87870212376285,34.67851622133217,115.78796270998129,41.6142194655986,138.94555525197754" stroke="#7DA6D2" fill="none"></path><path class="link link-1" d="M93.48696611098046,24.70296169901028C116.85870763872558,30.87870212376285,29.14037938920504,117.30426285900444,34.96845526704605,140.76511543080534" stroke="#7DA6D2" fill="none"></path><path class="link link-1" d="M93.48696611098046,24.70296169901028C116.85870763872558,30.87870212376285,23.536479516464077,118.55583464263698,28.24377541975689,142.26700157116437" stroke="#7DA6D2" fill="none"></path><path class="link link-1" d="M93.48696611098046,24.70296169901028C116.85870763872558,30.87870212376285,17.87946329826742,119.5398535552354,21.455355957920904,143.44782426628248" stroke="#7DA6D2" fill="none"></path><path class="link link-1" d="M93.48696611098046,24.70296169901028C116.85870763872558,30.87870212376285,12.182097300977901,120.25409889559158,14.618516761173483,144.3049186747099" stroke="#7DA6D2" fill="none"></path><path class="link link-1" d="M93.48696611098046,24.70296169901028C116.85870763872558,30.87870212376285,6.457239151000002,120.6969587785376,7.748686981200003,144.83635053424513" stroke="#7DA6D2" fill="none"></path><path class="link link-1" d="M93.48696611098046,24.70296169901028C116.85870763872558,30.87870212376285,0.7178085181155878,120.86743377259457,0.8613702217387053,145.04092052711349" stroke="#7DA6D2" fill="none"></path><path class="link link-1" d="M-76.96075930282767,58.54135868657818C-96.20094912853459,73.17669835822272,-10.752956314667495,120.39030578221848,-12.903547577600992,144.46836693866217" stroke="#7DA6D2" fill="none"></path><path class="link link-1" d="M-76.96075930282767,58.54135868657818C-96.20094912853459,73.17669835822272,-16.458403673372455,119.7437795643913,-19.750084408046945,143.69253547726956" stroke="#7DA6D2" fill="none"></path><path class="link link-1" d="M-76.96075930282767,58.54135868657818C-96.20094912853459,73.17669835822272,-22.12670825316049,118.82701956087568,-26.552049903792586,142.59242347305081" stroke="#7DA6D2" fill="none"></path><path class="link link-1" d="M-76.96075930282767,58.54135868657818C-96.20094912853459,73.17669835822272,-27.745078012469055,117.64209468520704,-33.29409361496287,141.17051362224845" stroke="#7DA6D2" fill="none"></path><path class="link link-1" d="M-76.96075930282767,58.54135868657818C-96.20094912853459,73.17669835822272,-33.30083360098057,116.19167903649993,-39.96100032117668,139.4300148437999" stroke="#7DA6D2" fill="none"></path><path class="link link-1" d="M-76.96075930282767,58.54135868657818C-96.20094912853459,73.17669835822272,-38.78143697395896,114.47904586463002,-46.53772436875075,137.37485503755602" stroke="#7DA6D2" fill="none"></path><path class="link link-1" d="M-76.96075930282767,58.54135868657818C-96.20094912853459,73.17669835822272,-44.1745196876928,112.50806018327245,-53.009423625231356,135.00967221992693" stroke="#7DA6D2" fill="none"></path><path class="link link-1" d="M-76.96075930282767,58.54135868657818C-96.20094912853459,73.17669835822272,-49.46791081218836,110.28317004746732,-59.36149297462603,132.3398040569608" stroke="#7DA6D2" fill="none"></path><path class="link link-1" d="M-76.96075930282767,58.54135868657818C-96.20094912853459,73.17669835822272,-54.649664398120336,107.80939651539671,-65.5795972777444,129.37127581847605" stroke="#7DA6D2" fill="none"></path><path class="link link-1" d="M-76.96075930282767,58.54135868657818C-96.20094912853459,73.17669835822272,-59.70808643605344,105.09232231702745,-71.64970372326412,126.11078678043295" stroke="#7DA6D2" fill="none"></path><path class="link link-1" d="M-76.96075930282767,58.54135868657818C-96.20094912853459,73.17669835822272,-64.63176124709491,102.13807925519129,-77.5581134965139,122.56569510622954" stroke="#7DA6D2" fill="none"></path><path class="link link-1" d="M-76.96075930282767,58.54135868657818C-96.20094912853459,73.17669835822272,-69.40957724541937,98.95333436753597,-83.29149269450325,118.74400124104316" stroke="#7DA6D2" fill="none"></path><path class="link link-1" d="M-76.96075930282767,58.54135868657818C-96.20094912853459,73.17669835822272,-74.03075201452671,95.54527488057619,-88.83690241743206,114.65432985669143" stroke="#7DA6D2" fill="none"></path><path class="link link-1" d="M-76.96075930282767,58.54135868657818C-96.20094912853459,73.17669835822272,-78.48485664064191,91.92159198979913,-94.18182796877029,110.30591038775894" stroke="#7DA6D2" fill="none"></path><path class="link link-1" d="M-76.96075930282767,58.54135868657818C-96.20094912853459,73.17669835822272,-82.76183924834109,88.09046350243007,-99.31420709800932,105.70855620291609" stroke="#7DA6D2" fill="none"></path><path class="link link-1" d="M-76.96075930282767,58.54135868657818C-96.20094912853459,73.17669835822272,-86.85204768529019,84.06053538202869,-104.22245722234823,100.87264245843443" stroke="#7DA6D2" fill="none"></path><path class="link link-1" d="M-76.96075930282767,58.54135868657818C-96.20094912853459,73.17669835822272,-90.74625130490205,79.8409022365653,-108.89550156588245,95.80908268387836" stroke="#7DA6D2" fill="none"></path><path class="link link-1" d="M-76.96075930282767,58.54135868657818C-96.20094912853459,73.17669835822272,-94.435661797753,75.44108679401184,-113.3227941573036,90.5293041528142" stroke="#7DA6D2" fill="none"></path><path class="link link-1" d="M-76.96075930282767,58.54135868657818C-96.20094912853459,73.17669835822272,-97.91195302474793,70.87101841176525,-117.49434362969752,85.0452220941183" stroke="#7DA6D2" fill="none"></path><path class="link link-1" d="M-76.96075930282767,58.54135868657818C-96.20094912853459,73.17669835822272,-101.1672798072742,66.1410106684038,-121.40073576872904,79.36921280208456" stroke="#7DA6D2" fill="none"></path><path class="link link-1" d="M-76.96075930282767,58.54135868657818C-96.20094912853459,73.17669835822272,-104.19429563194043,61.261738088345275,-125.03315475832852,73.51408570601433" stroke="#7DA6D2" fill="none"></path><path class="link link-1" d="M-76.96075930282767,58.54135868657818C-96.20094912853459,73.17669835822272,-106.98616922994414,56.244212051934454,-128.38340307593296,67.49305446232134" stroke="#7DA6D2" fill="none"></path><path class="link link-1" d="M-76.96075930282767,58.54135868657818C-96.20094912853459,73.17669835822272,-109.53659999365217,51.09975594532574,-131.4439199923826,61.31970713439089" stroke="#7DA6D2" fill="none"></path><path class="link link-1" d="M-76.96075930282767,58.54135868657818C-96.20094912853459,73.17669835822272,-111.83983219560272,45.83997960624155,-134.20779863472328,55.007975527489855" stroke="#7DA6D2" fill="none"></path><path class="link link-1" d="M-76.96075930282767,58.54135868657818C-96.20094912853459,73.17669835822272,-113.89066797784005,40.47675312327575,-136.66880157340808,48.572103747930896" stroke="#7DA6D2" fill="none"></path><path class="link link-1" d="M-76.96075930282767,58.54135868657818C-96.20094912853459,73.17669835822272,-115.68447908226788,35.02218004787164,-138.82137489872144,42.02661605744597" stroke="#7DA6D2" fill="none"></path><path class="link link-1" d="M-76.96075930282767,58.54135868657818C-96.20094912853459,73.17669835822272,-117.2172172955483,29.488570079429532,-140.66066075465795,35.38628409531544" stroke="#7DA6D2" fill="none"></path><path class="link link-1" d="M-76.96075930282767,58.54135868657818C-96.20094912853459,73.17669835822272,-118.48542358497535,23.888411285185537,-142.18250830197042,28.666093542222644" stroke="#7DA6D2" fill="none"></path><path class="link link-1" d="M-76.96075930282767,58.54135868657818C-96.20094912853459,73.17669835822272,-119.4862359047053,18.234341917555813,-143.38348308564636,21.88121030106698" stroke="#7DA6D2" fill="none"></path><path class="link link-1" d="M-76.96075930282767,58.54135868657818C-96.20094912853459,73.17669835822272,-120.21739565472635,12.539121892548783,-144.26087478567163,15.046946271058541" stroke="#7DA6D2" fill="none"></path><path class="link link-1" d="M-76.96075930282767,58.54135868657818C-96.20094912853459,73.17669835822272,-120.67725277799252,6.8156039936099395,-144.81270333359103,8.178724792331927" stroke="#7DA6D2" fill="none"></path><path class="link link-1" d="M-76.96075930282767,58.54135868657818C-96.20094912853459,73.17669835822272,-120.86476948421732,1.0767048658871563,-145.0377233810608,1.2920458390645875" stroke="#7DA6D2" fill="none"></path><path class="link link-1" d="M-76.96075930282767,58.54135868657818C-96.20094912853459,73.17669835822272,-120.77952259192455,-4.664624133625621,-144.93542711030946,-5.5975489603507445" stroke="#7DA6D2" fill="none"></path><path class="link link-1" d="M-76.96075930282767,58.54135868657818C-96.20094912853459,73.17669835822272,-120.42170448347015,-10.395426164280149,-144.50604538016418,-12.47451139713618" stroke="#7DA6D2" fill="none"></path><path class="link link-1" d="M-76.96075930282767,58.54135868657818C-96.20094912853459,73.17669835822272,-119.79212267088012,-16.102768142341965,-143.75054720505614,-19.32332177081036" stroke="#7DA6D2" fill="none"></path><path class="link link-1" d="M-76.96075930282767,58.54135868657818C-96.20094912853459,73.17669835822272,-118.89219797348416,-21.77376992794464,-142.67063756818098,-26.128523913533567" stroke="#7DA6D2" fill="none"></path><path class="link link-2" d="M-80.61816315329723,-53.392517445113285C-100.77270394162154,-66.74064680639161,-116.29004912250919,-32.95567130139538,-139.54805894701101,-39.546805561674454" stroke="#7AB439" fill="none"></path><path class="link link-2" d="M-80.61816315329723,-53.392517445113285C-100.77270394162154,-66.74064680639161,-114.59369741205398,-38.4413359455135,-137.51243689446477,-46.129603134616204" stroke="#7AB439" fill="none"></path><path class="link link-2" d="M-80.61816315329723,-53.392517445113285C-100.77270394162154,-66.74064680639161,-112.63873445030583,-43.84024745909519,-135.166481340367,-52.60829695091422" stroke="#7AB439" fill="none"></path><path class="link link-2" d="M-80.61816315329723,-53.392517445113285C-100.77270394162154,-66.74064680639161,-110.4295721327633,-49.140221757904634,-132.51548655931595,-58.96826610948556" stroke="#7AB439" fill="none"></path><path class="link link-2" d="M-80.61816315329723,-53.392517445113285C-100.77270394162154,-66.74064680639161,-107.97119602359038,-54.329298035927515,-129.56543522830844,-65.19515764311302" stroke="#7AB439" fill="none"></path><path class="link link-2" d="M-80.61816315329723,-53.392517445113285C-100.77270394162154,-66.74064680639161,-105.26915410436115,-59.39576575812016,-126.32298492523337,-71.2749189097442" stroke="#7AB439" fill="none"></path><path class="link link-2" d="M-80.61816315329723,-53.392517445113285C-100.77270394162154,-66.74064680639161,-102.32954425355904,-64.32819108835659,-122.79545310427083,-77.19382930602791" stroke="#7AB439" fill="none"></path><path class="link link-2" d="M-80.61816315329723,-53.392517445113285C-100.77270394162154,-66.74064680639161,-99.15900048508692,-69.11544269293042,-118.9908005821043,-82.93853123151649" stroke="#7AB439" fill="none"></path><path class="link link-2" d="M-80.61816315329723,-53.392517445113285C-100.77270394162154,-66.74064680639161,-95.76467797684523,-73.74671686137864,-114.91761357221428,-88.49606023365436" stroke="#7AB439" fill="none"></path><path class="link link-2" d="M-80.61816315329723,-53.392517445113285C-100.77270394162154,-66.74064680639161,-92.15423692316386,-78.211561887937,-110.58508430779663,-93.8538742655244" stroke="#7AB439" fill="none"></path><path class="link link-2" d="M-80.61816315329723,-53.392517445113285C-100.77270394162154,-66.74064680639161,-88.33582524752971,-82.49990165860265,-106.00299029703565,-98.99988199032317" stroke="#7AB439" fill="none"></path><path class="link link-2" d="M-80.61816315329723,-53.392517445113285C-100.77270394162154,-66.74064680639161,-84.31806021462397,-86.60205839057328,-101.18167225754877,-103.92247006868793" stroke="#7AB439" fill="none"></path><path class="link link-2" d="M-80.61816315329723,-53.392517445113285C-100.77270394162154,-66.74064680639161,-80.11000898316517,-90.50877447274607,-96.13201077979821,-108.61052936729529" stroke="#7AB439" fill="none"></path><path class="link link-2" d="M-80.61816315329723,-53.392517445113285C-100.77270394162154,-66.74064680639161,-75.72116814344592,-94.21123335798767,-90.86540177213512,-113.05348002958519" stroke="#7AB439" fill="none"></path><path class="link link-2" d="M-53.15289731837781,-80.77634960804036C-66.44112164797227,-100.97043701005046,-66.44112164797227,-100.97043701005046,-79.72934597756671,-121.16452441206054" stroke="#7AB439" fill="none"></path><path class="link link-3" d="M-40.61942122866119,-87.75028073110062C-50.77427653582648,-109.68785091387576,-56.56164506812652,-106.81868798589737,-67.87397408175183,-128.18242558307685" stroke="#8C9292" fill="none"></path><path class="link link-3" d="M-40.61942122866119,-87.75028073110062C-50.77427653582648,-109.68785091387576,-44.841892721268074,-112.24373680974588,-53.81027126552169,-134.69248417169504" stroke="#8C9292" fill="none"></path><path class="link link-4" d="M-27.192219443470815,-92.7934930427587C-33.99027430433852,-115.99186630344836,-33.99027430433852,-115.99186630344836,-40.78832916520622,-139.19023956413804" fill="none"></path><path class="link link-4" d="M-16.005008688561414,-95.36188361299C-20.00626086070177,-119.2023545162375,-22.8319965100726,-118.69352017361878,-27.39839581208712,-142.43222420834252" fill="none"></path><path class="link link-4" d="M-16.005008688561414,-95.36188361299C-20.00626086070177,-119.2023545162375,-17.16923625251905,-119.64392639138185,-20.60308350302286,-143.57271166965822" fill="none"></path><path class="link link-4" d="M-4.59227345820278,-96.58654240536548C-5.740341822753475,-120.73317800670685,-5.740341822753475,-120.73317800670685,-6.88841018730417,-144.87981360804824" fill="none"></path><path class="link link-undefined" d="M-67.87397408175183,-128.18242558307685C-79.18630309537714,-149.54616318025631,-81.83794157733227,-148.11170392050028,-93.52907608837974,-169.27051876628602" fill="none"></path><path class="link link-undefined" d="M-67.87397408175183,-128.18242558307685C-79.18630309537714,-149.54616318025631,-76.50953015736818,-150.93315512155556,-87.4394630369922,-172.49503442463492" fill="none"></path><path class="link link-undefined" d="M-53.81027126552169,-134.69248417169504C-62.77864980977531,-157.14123153364423,-65.56820047675777,-155.99787372297254,-74.93508625915172,-178.28328425482576" fill="none"></path><path class="link link-undefined" d="M-53.81027126552169,-134.69248417169504C-62.77864980977531,-157.14123153364423,-59.96917262579355,-158.2347112817746,-68.53619728662119,-180.8396700363138" fill="none"></path><circle r="222.40000000000003" class="main-circle" style="" stroke="#C2CBCA" fill="none"></circle><g class="node node-undefined"><circle r="0" stroke="#FFFFFF" stroke-width="1"></circle><text dy="0.31em" x="6" text-anchor="start" transform="rotate(272.72211720226846)" style="font-size: 0.43em;"></text></g><g class="node node-0" fill="#5D969F"><circle r="0" stroke="#FFFFFF" stroke-width="1" fill="#5D969F"></circle><text dy="0.31em" x="-6" text-anchor="end" transform="rotate(-75.02835538752363)" style="font-size: 0.43em;" fill="#5D969F"></text></g><g class="node node-1" fill="#7DA6D2"><circle r="0" stroke="#FFFFFF" stroke-width="1" fill="#7DA6D2"></circle><text dy="0.31em" x="-6" text-anchor="end" transform="rotate(78.77126654064273)" style="font-size: 0.43em;" fill="#7DA6D2"></text></g><g class="node node-2" fill="#7AB439"><circle r="0" stroke="#FFFFFF" stroke-width="1" fill="#7AB439"></circle><text dy="0.31em" x="6" text-anchor="start" transform="rotate(405.085066162571)" style="font-size: 0.43em;" fill="#7AB439"></text></g><g class="node node-3" fill="#8C9292"><circle r="0" stroke="#FFFFFF" stroke-width="1" fill="#8C9292"></circle><text dy="0.31em" x="6" text-anchor="start" transform="rotate(425.16068052930063)" style="font-size: 0.43em;" fill="#8C9292"></text></g><g class="node node-4"><circle r="0" stroke="#FFFFFF" stroke-width="1"></circle><text dy="0.31em" x="6" text-anchor="start" transform="rotate(440.47258979206055)" style="font-size: 0.43em;"></text></g><g class="node node-0" fill="#5D969F"><circle r="5" cx="31.59139470463497" cy="-220.14482456014264" stroke="#FFFFFF" stroke-width="1" fill="#5D969F"></circle><text dy="0.31em" x="-6" text-anchor="end" transform="rotate(-81.83364839319471)" style="font-size: 0.43em;" fill="#5D969F"></text></g><g class="node node-0" fill="#5D969F"><circle r="5" cx="82.50908260713351" cy="-206.5284757299323" stroke="#FFFFFF" stroke-width="1" fill="#5D969F"></circle><text dy="0.31em" x="-6" text-anchor="end" transform="rotate(-68.22306238185256)" style="font-size: 0.43em;" fill="#5D969F"></text></g><g class="node node-1" fill="#7DA6D2"><circle r="5" cx="215.02002205525505" cy="56.81681190772364" stroke="#FFFFFF" stroke-width="1" fill="#7DA6D2"></circle><text dy="0.31em" x="-6" text-anchor="end" transform="rotate(14.8015122873346)" style="font-size: 0.43em;" fill="#7DA6D2"></text></g><g class="node node-1" fill="#7DA6D2"><circle r="5" cx="-177.00974639650363" cy="134.6451249791298" stroke="#FFFFFF" stroke-width="1" fill="#7DA6D2"></circle><text dy="0.31em" x="6" text-anchor="start" transform="rotate(322.74102079395084)" style="font-size: 0.43em;" fill="#7DA6D2"></text></g><g class="node node-2" fill="#7AB439"><circle r="5" cx="-185.42177525258361" cy="-122.80279012376054" stroke="#FFFFFF" stroke-width="1" fill="#7AB439"></circle><text dy="0.31em" x="6" text-anchor="start" transform="rotate(393.5160680529301)" style="font-size: 0.43em;" fill="#7AB439"></text></g><g class="node node-2" fill="#7AB439"><circle r="5" cx="-122.25166383226896" cy="-185.78560409849283" stroke="#FFFFFF" stroke-width="1" fill="#7AB439"></circle><text dy="0.31em" x="6" text-anchor="start" transform="rotate(416.65406427221177)" style="font-size: 0.43em;" fill="#7AB439"></text></g><g class="node node-3" fill="#8C9292"><circle r="5" cx="-93.42466882592073" cy="-201.8256456815314" stroke="#FFFFFF" stroke-width="1" fill="#8C9292"></circle><text dy="0.31em" x="6" text-anchor="start" transform="rotate(425.16068052930063)" style="font-size: 0.43em;" fill="#8C9292"></text></g><g class="node node-4"><circle r="5" cx="-62.54210471998287" cy="-213.425033998345" stroke="#FFFFFF" stroke-width="1"></circle><text dy="0.31em" x="6" text-anchor="start" transform="rotate(433.6672967863894)" style="font-size: 0.43em;"></text></g><g class="node node-4"><circle r="5" cx="-36.81151998369125" cy="-219.332332309877" stroke="#FFFFFF" stroke-width="1"></circle><text dy="0.31em" x="6" text-anchor="start" transform="rotate(440.47258979206055)" style="font-size: 0.43em;"></text></g><g class="node node-4"><circle r="5" cx="-10.562228953866393" cy="-222.14904753234057" stroke="#FFFFFF" stroke-width="1"></circle><text dy="0.31em" x="6" text-anchor="start" transform="rotate(447.27788279773165)" style="font-size: 0.43em;"></text></g><g class="node node-0" transform="translate(6.888410187304216,-144.87981360804824)" fill="#5D969F"><circle r="2" stroke="#FFFFFF" stroke-width="1" fill="#5D969F"></circle><text dy="0.31em" x="6" text-anchor="start" transform="rotate(-87.27788279773156)" style="font-size: 0.43em;" fill="#5D969F">Contest</text></g><g class="node node-0" transform="translate(13.761274839223908,-144.3891890025382)" fill="#5D969F"><circle r="2" stroke="#FFFFFF" stroke-width="1" fill="#5D969F"></circle><text dy="0.31em" x="6" text-anchor="start" transform="rotate(-84.55576559546316)" style="font-size: 0.43em;" fill="#5D969F">Contrast</text></g><g class="node node-0" transform="translate(20.603083503022805,-143.57271166965825)" fill="#5D969F"><circle r="2" stroke="#FFFFFF" stroke-width="1" fill="#5D969F"></circle><text dy="0.31em" x="6" text-anchor="start" transform="rotate(-81.83364839319471)" style="font-size: 0.43em;" fill="#5D969F">Challenge</text></g><g class="node node-0" transform="translate(27.398395812087138,-142.43222420834252)" fill="#5D969F"><circle r="2" stroke="#FFFFFF" stroke-width="1" fill="#5D969F"></circle><text dy="0.31em" x="6" text-anchor="start" transform="rotate(-79.11153119092629)" style="font-size: 0.43em;" fill="#5D969F">Alternative</text></g><g class="node node-0" transform="translate(34.13187633123279,-140.97030043282444)" fill="#5D969F"><circle r="2" stroke="#FFFFFF" stroke-width="1" fill="#5D969F"></circle><text dy="0.31em" x="6" text-anchor="start" transform="rotate(-76.38941398865786)" style="font-size: 0.43em;" fill="#5D969F">Contest effect</text></g><g class="node node-0" transform="translate(47.35273225227553,-137.09605878454585)" fill="#5D969F"><circle r="2" stroke="#FFFFFF" stroke-width="1" fill="#5D969F"></circle><text dy="0.31em" x="6" text-anchor="start" transform="rotate(-70.945179584121)" style="font-size: 0.43em;" fill="#5D969F">Interdisciplinary</text></g><g class="node node-0" transform="translate(53.810271265521855,-134.69248417169499)" fill="#5D969F"><circle r="2" stroke="#FFFFFF" stroke-width="1" fill="#5D969F"></circle><text dy="0.31em" x="6" text-anchor="start" transform="rotate(-68.22306238185256)" style="font-size: 0.43em;" fill="#5D969F">Multi-disciplinary</text></g><g class="node node-0" transform="translate(60.146373045319436,-131.98494003296216)" fill="#5D969F"><circle r="2" stroke="#FFFFFF" stroke-width="1" fill="#5D969F"></circle><text dy="0.31em" x="6" text-anchor="start" transform="rotate(-65.50094517958411)" style="font-size: 0.43em;" fill="#5D969F">Literature synthesis</text></g><g class="node node-1" transform="translate(72.39737481338938,-125.6830565595099)" fill="#7DA6D2"><circle r="2" stroke="#FFFFFF" stroke-width="1" fill="#7DA6D2"></circle><text dy="0.31em" x="6" text-anchor="start" transform="rotate(-60.05671077504728)" style="font-size: 0.43em;" fill="#7DA6D2">Rare</text></g><g class="node node-1" transform="translate(78.28462714766009,-122.10293910616237)" fill="#7DA6D2"><circle r="2" stroke="#FFFFFF" stroke-width="1" fill="#7DA6D2"></circle><text dy="0.31em" x="6" text-anchor="start" transform="rotate(-57.33459357277886)" style="font-size: 0.43em;" fill="#7DA6D2">Poor reporting</text></g><g class="node node-1" transform="translate(83.99520933478601,-118.24726379420721)" fill="#7DA6D2"><circle r="2" stroke="#FFFFFF" stroke-width="1" fill="#7DA6D2"></circle><text dy="0.31em" x="6" text-anchor="start" transform="rotate(-54.6124763705104)" style="font-size: 0.43em;" fill="#7DA6D2">Not defined/tested/examined</text></g><g class="node node-1" transform="translate(89.51623392250418,-114.12473198366277)" fill="#7DA6D2"><circle r="2" stroke="#FFFFFF" stroke-width="1" fill="#7DA6D2"></circle><text dy="0.31em" x="6" text-anchor="start" transform="rotate(-51.890359168241986)" style="font-size: 0.43em;" fill="#7DA6D2">Scarce</text></g><g class="node node-1" transform="translate(94.83524124584797,-109.74464726743244)" fill="#7DA6D2"><circle r="2" stroke="#FFFFFF" stroke-width="1" fill="#7DA6D2"></circle><text dy="0.31em" x="6" text-anchor="start" transform="rotate(-49.16824196597356)" style="font-size: 0.43em;" fill="#7DA6D2">Lack of empirical insight/mostly conceptual to date</text></g><g class="node node-1" transform="translate(99.94022754570507,-105.11689447526521)" fill="#7DA6D2"><circle r="2" stroke="#FFFFFF" stroke-width="1" fill="#7DA6D2"></circle><text dy="0.31em" x="6" text-anchor="start" transform="rotate(-46.446124763705114)" style="font-size: 0.43em;" fill="#7DA6D2">Ignored/ignores</text></g><g class="node node-1" transform="translate(104.81967205850243,-100.25191736600033)" fill="#7DA6D2"><circle r="2" stroke="#FFFFFF" stroke-width="1" fill="#7DA6D2"></circle><text dy="0.31em" x="6" text-anchor="start" transform="rotate(-43.724007561436686)" style="font-size: 0.43em;" fill="#7DA6D2">Have not been addressed</text></g><g class="node node-1" transform="translate(109.46256301588306,-95.16069505843879)" fill="#7DA6D2"><circle r="2" stroke="#FFFFFF" stroke-width="1" fill="#7DA6D2"></circle><text dy="0.31em" x="6" text-anchor="start" transform="rotate(-41.00189035916827)" style="font-size: 0.43em;" fill="#7DA6D2">Relatively unexplored</text></g><g class="node node-1" transform="translate(113.85842249569937,-89.85471725403274)" fill="#7DA6D2"><circle r="2" stroke="#FFFFFF" stroke-width="1" fill="#7DA6D2"></circle><text dy="0.31em" x="6" text-anchor="start" transform="rotate(-38.279773156899815)" style="font-size: 0.43em;" fill="#7DA6D2">Scant</text></g><g class="node node-1" transform="translate(117.99733006823948,-84.34595830730895)" fill="#7DA6D2"><circle r="2" stroke="#FFFFFF" stroke-width="1" fill="#7DA6D2"></circle><text dy="0.31em" x="6" text-anchor="start" transform="rotate(-35.55765595463139)" style="font-size: 0.43em;" fill="#7DA6D2">Understudied</text></g><g class="node node-1" transform="translate(121.8699451843241,-78.64685020254268)" fill="#7DA6D2"><circle r="2" stroke="#FFFFFF" stroke-width="1" fill="#7DA6D2"></circle><text dy="0.31em" x="6" text-anchor="start" transform="rotate(-32.83553875236296)" style="font-size: 0.43em;" fill="#7DA6D2">Little guidance</text></g><g class="node node-1" transform="translate(125.46752825474753,-72.77025449766876)" fill="#7DA6D2"><circle r="2" stroke="#FFFFFF" stroke-width="1" fill="#7DA6D2"></circle><text dy="0.31em" x="6" text-anchor="start" transform="rotate(-30.11342155009453)" style="font-size: 0.43em;" fill="#7DA6D2">Unanswered question</text></g><g class="node node-1" transform="translate(128.78196037349235,-66.72943329874454)" fill="#7DA6D2"><circle r="2" stroke="#FFFFFF" stroke-width="1" fill="#7DA6D2"></circle><text dy="0.31em" x="6" text-anchor="start" transform="rotate(-27.391304347826104)" style="font-size: 0.43em;" fill="#7DA6D2">Have paid less attention</text></g><g class="node node-1" transform="translate(131.80576164020707,-60.53801933046928)" fill="#7DA6D2"><circle r="2" stroke="#FFFFFF" stroke-width="1" fill="#7DA6D2"></circle><text dy="0.31em" x="6" text-anchor="start" transform="rotate(-24.669187145557675)" style="font-size: 0.43em;" fill="#7DA6D2">Does not show</text></g><g class="node node-1" transform="translate(134.53210804059674,-54.20998517030376)" fill="#7DA6D2"><circle r="2" stroke="#FFFFFF" stroke-width="1" fill="#7DA6D2"></circle><text dy="0.31em" x="6" text-anchor="start" transform="rotate(-21.947069943289247)" style="font-size: 0.43em;" fill="#7DA6D2">Shortage of research</text></g><g class="node node-1" transform="translate(136.95484684663202,-47.7596117156214)" fill="#7DA6D2"><circle r="2" stroke="#FFFFFF" stroke-width="1" fill="#7DA6D2"></circle><text dy="0.31em" x="6" text-anchor="start" transform="rotate(-19.224952741020807)" style="font-size: 0.43em;" fill="#7DA6D2">Gone unnoticed</text></g><g class="node node-1" transform="translate(139.06851050182118,-41.201455955053355)" fill="#7DA6D2"><circle r="2" stroke="#FFFFFF" stroke-width="1" fill="#7DA6D2"></circle><text dy="0.31em" x="6" text-anchor="start" transform="rotate(-16.502835538752382)" style="font-size: 0.43em;" fill="#7DA6D2">Missing/missed</text></g><g class="node node-1" transform="translate(140.8683289602104,-34.550318116759776)" fill="#7DA6D2"><circle r="2" stroke="#FFFFFF" stroke-width="1" fill="#7DA6D2"></circle><text dy="0.31em" x="6" text-anchor="start" transform="rotate(-13.78071833648397)" style="font-size: 0.43em;" fill="#7DA6D2">Only a few exceptions</text></g><g class="node node-1" transform="translate(142.35024045126485,-27.821208267766323)" fill="#7DA6D2"><circle r="2" stroke="#FFFFFF" stroke-width="1" fill="#7DA6D2"></circle><text dy="0.31em" x="6" text-anchor="start" transform="rotate(-11.058601134215529)" style="font-size: 0.43em;" fill="#7DA6D2">First time/look</text></g><g class="node node-1" transform="translate(143.51090064633766,-21.02931243974352)" fill="#7DA6D2"><circle r="2" stroke="#FFFFFF" stroke-width="1" fill="#7DA6D2"></circle><text dy="0.31em" x="6" text-anchor="start" transform="rotate(-8.33648393194709)" style="font-size: 0.43em;" fill="#7DA6D2">First study</text></g><g class="node node-1" transform="translate(144.34769020603972,-14.189958357674575)" fill="#7DA6D2"><circle r="2" stroke="#FFFFFF" stroke-width="1" fill="#7DA6D2"></circle><text dy="0.31em" x="6" text-anchor="start" transform="rotate(-5.614366729678663)" style="font-size: 0.43em;" fill="#7DA6D2">Not attempted</text></g><g class="node node-1" transform="translate(144.85872069147786,-7.318580848754551)" fill="#7DA6D2"><circle r="2" stroke="#FFFFFF" stroke-width="1" fill="#7DA6D2"></circle><text dy="0.31em" x="6" text-anchor="start" transform="rotate(-2.8922495274102493)" style="font-size: 0.43em;" fill="#7DA6D2">Little understood</text></g><g class="node node-1" transform="translate(145.04283882602107,-0.43068700958482337)" fill="#7DA6D2"><circle r="2" stroke="#FFFFFF" stroke-width="1" fill="#7DA6D2"></circle><text dy="0.31em" x="6" text-anchor="start" transform="rotate(-0.17013232514181006)" style="font-size: 0.43em;" fill="#7DA6D2">Little written</text></g><g class="node node-1" transform="translate(144.89962909797686,6.458178789727388)" fill="#7DA6D2"><circle r="2" stroke="#FFFFFF" stroke-width="1" fill="#7DA6D2"></circle><text dy="0.31em" x="6" text-anchor="start" transform="rotate(2.551984877126629)" style="font-size: 0.43em;" fill="#7DA6D2">Only identified a [low number] of studies</text></g><g class="node node-1" transform="translate(144.4294146983043,13.332469985587487)" fill="#7DA6D2"><circle r="2" stroke="#FFFFFF" stroke-width="1" fill="#7DA6D2"></circle><text dy="0.31em" x="6" text-anchor="start" transform="rotate(5.2741020793950435)" style="font-size: 0.43em;" fill="#7DA6D2">Paucity</text></g><g class="node node-1" transform="translate(143.6332567912473,20.176672905882192)" fill="#7DA6D2"><circle r="2" stroke="#FFFFFF" stroke-width="1" fill="#7DA6D2"></circle><text dy="0.31em" x="6" text-anchor="start" transform="rotate(7.996219281663482)" style="font-size: 0.43em;" fill="#7DA6D2">Lack of research</text></g><g class="node node-1" transform="translate(142.5129521195345,26.97534178071927)" fill="#7DA6D2"><circle r="2" stroke="#FFFFFF" stroke-width="1" fill="#7DA6D2"></circle><text dy="0.31em" x="6" text-anchor="start" transform="rotate(10.718336483931923)" style="font-size: 0.43em;" fill="#7DA6D2">Dearth</text></g><g class="node node-1" transform="translate(141.07102894954986,33.71313359992839)" fill="#7DA6D2"><circle r="2" stroke="#FFFFFF" stroke-width="1" fill="#7DA6D2"></circle><text dy="0.31em" x="6" text-anchor="start" transform="rotate(13.44045368620036)" style="font-size: 0.43em;" fill="#7DA6D2">Still know very little</text></g><g class="node node-1" transform="translate(139.31074136562503,40.37484273865695)" fill="#7DA6D2"><circle r="2" stroke="#FFFFFF" stroke-width="1" fill="#7DA6D2"></circle><text dy="0.31em" x="6" text-anchor="start" transform="rotate(16.16257088846879)" style="font-size: 0.43em;" fill="#7DA6D2">Yet to uncover</text></g><g class="node node-1" transform="translate(137.23606192632997,46.94543527291947)" fill="#7DA6D2"><circle r="2" stroke="#FFFFFF" stroke-width="1" fill="#7DA6D2"></circle><text dy="0.31em" x="6" text-anchor="start" transform="rotate(18.884688090737225)" style="font-size: 0.43em;" fill="#7DA6D2">Research largely silent</text></g><g class="node node-1" transform="translate(134.85167269933459,53.410082907657845)" fill="#7DA6D2"><circle r="2" stroke="#FFFFFF" stroke-width="1" fill="#7DA6D2"></circle><text dy="0.31em" x="6" text-anchor="start" transform="rotate(21.606805293005667)" style="font-size: 0.43em;" fill="#7DA6D2">Only scratch the surface</text></g><g class="node node-1" transform="translate(132.16295469507392,59.754196440745375)" fill="#7DA6D2"><circle r="2" stroke="#FFFFFF" stroke-width="1" fill="#7DA6D2"></circle><text dy="0.31em" x="6" text-anchor="start" transform="rotate(24.328922495274103)" style="font-size: 0.43em;" fill="#7DA6D2">Paid little attention</text></g><g class="node node-1" transform="translate(129.1759757230624,65.96345868741375)" fill="#7DA6D2"><circle r="2" stroke="#FFFFFF" stroke-width="1" fill="#7DA6D2"></circle><text dy="0.31em" x="6" text-anchor="start" transform="rotate(27.051039697542542)" style="font-size: 0.43em;" fill="#7DA6D2">Absence of work</text></g><g class="node node-1" transform="translate(125.89747669826298,72.02385679080008)" fill="#7DA6D2"><circle r="2" stroke="#FFFFFF" stroke-width="1" fill="#7DA6D2"></circle><text dy="0.31em" x="6" text-anchor="start" transform="rotate(29.77315689981097)" style="font-size: 0.43em;" fill="#7DA6D2">Little/limited evidence/work</text></g><g class="node node-1" transform="translate(122.33485642841386,77.9217138456972)" fill="#7DA6D2"><circle r="2" stroke="#FFFFFF" stroke-width="1" fill="#7DA6D2"></circle><text dy="0.31em" x="6" text-anchor="start" transform="rotate(32.4952741020794)" style="font-size: 0.43em;" fill="#7DA6D2">Unlike previous studies</text></g><g class="node node-1" transform="translate(118.49615491664497,83.64371976413905)" fill="#7DA6D2"><circle r="2" stroke="#FFFFFF" stroke-width="1" fill="#7DA6D2"></circle><text dy="0.31em" x="6" text-anchor="start" transform="rotate(35.21739130434785)" style="font-size: 0.43em;" fill="#7DA6D2">Not evident</text></g><g class="node node-1" transform="translate(114.39003521706597,89.17696131316515)" fill="#7DA6D2"><circle r="2" stroke="#FFFFFF" stroke-width="1" fill="#7DA6D2"></circle><text dy="0.31em" x="6" text-anchor="start" transform="rotate(37.93950850661628)" style="font-size: 0.43em;" fill="#7DA6D2">Non-existent</text></g><g class="node node-1" transform="translate(110.0257638842732,94.50895125697625)" fill="#7DA6D2"><circle r="2" stroke="#FFFFFF" stroke-width="1" fill="#7DA6D2"></circle><text dy="0.31em" x="6" text-anchor="start" transform="rotate(40.6616257088847)" style="font-size: 0.43em;" fill="#7DA6D2">Lack of focus</text></g><g class="node node-1" transform="translate(105.41319006089698,99.62765653771325)" fill="#7DA6D2"><circle r="2" stroke="#FFFFFF" stroke-width="1" fill="#7DA6D2"></circle><text dy="0.31em" x="6" text-anchor="start" transform="rotate(43.383742911153156)" style="font-size: 0.43em;" fill="#7DA6D2">In its infancy</text></g><g class="node node-1" transform="translate(100.56272325038375,104.52152543126262)" fill="#7DA6D2"><circle r="2" stroke="#FFFFFF" stroke-width="1" fill="#7DA6D2"></circle><text dy="0.31em" x="6" text-anchor="start" transform="rotate(46.105860113421606)" style="font-size: 0.43em;" fill="#7DA6D2">No studies</text></g><g class="node node-1" transform="translate(95.48530982517418,109.1795136168038)" fill="#7DA6D2"><circle r="2" stroke="#FFFFFF" stroke-width="1" fill="#7DA6D2"></circle><text dy="0.31em" x="6" text-anchor="start" transform="rotate(48.82797731569003)" style="font-size: 0.43em;" fill="#7DA6D2">Not yet specified</text></g><g class="node node-1" transform="translate(90.19240832329328,113.59110910126589)" fill="#7DA6D2"><circle r="2" stroke="#FFFFFF" stroke-width="1" fill="#7DA6D2"></circle><text dy="0.31em" x="6" text-anchor="start" transform="rotate(51.55009451795846)" style="font-size: 0.43em;" fill="#7DA6D2">Yet to be uncovered</text></g><g class="node node-1" transform="translate(84.69596358910229,117.74635594244438)" fill="#7DA6D2"><circle r="2" stroke="#FFFFFF" stroke-width="1" fill="#7DA6D2"></circle><text dy="0.31em" x="6" text-anchor="start" transform="rotate(54.272211720226885)" style="font-size: 0.43em;" fill="#7DA6D2">Only just begun</text></g><g class="node node-1" transform="translate(79.00837981657064,121.63587671724106)" fill="#7DA6D2"><circle r="2" stroke="#FFFFFF" stroke-width="1" fill="#7DA6D2"></circle><text dy="0.31em" x="6" text-anchor="start" transform="rotate(56.99432892249534)" style="font-size: 0.43em;" fill="#7DA6D2">Overlooks</text></g><g class="node node-1" transform="translate(73.14249255590285,125.25089368432086)" fill="#7DA6D2"><circle r="2" stroke="#FFFFFF" stroke-width="1" fill="#7DA6D2"></circle><text dy="0.31em" x="6" text-anchor="start" transform="rotate(59.71644612476376)" style="font-size: 0.43em;" fill="#7DA6D2">Relatively little attention</text></g><g class="node node-1" transform="translate(67.11153974669489,128.58324859342736)" fill="#7DA6D2"><circle r="2" stroke="#FFFFFF" stroke-width="1" fill="#7DA6D2"></circle><text dy="0.31em" x="6" text-anchor="start" transform="rotate(62.438563327032185)" style="font-size: 0.43em;" fill="#7DA6D2">Underutilized</text></g><g class="node node-1" transform="translate(60.929131842991765,131.6254210966509)" fill="#7DA6D2"><circle r="2" stroke="#FFFFFF" stroke-width="1" fill="#7DA6D2"></circle><text dy="0.31em" x="6" text-anchor="start" transform="rotate(65.16068052930065)" style="font-size: 0.43em;" fill="#7DA6D2">Not explored</text></g><g class="node node-1" transform="translate(54.60922109766681,134.37054572010004)" fill="#7DA6D2"><circle r="2" stroke="#FFFFFF" stroke-width="1" fill="#7DA6D2"></circle><text dy="0.31em" x="6" text-anchor="start" transform="rotate(67.8827977315691)" style="font-size: 0.43em;" fill="#7DA6D2">Still lacking/lacks</text></g><g class="node node-1" transform="translate(48.16607007544066,136.81242735767498)" fill="#7DA6D2"><circle r="2" stroke="#FFFFFF" stroke-width="1" fill="#7DA6D2"></circle><text dy="0.31em" x="6" text-anchor="start" transform="rotate(70.60491493383752)" style="font-size: 0.43em;" fill="#7DA6D2">Limited consideration</text></g><g class="node node-1" transform="translate(41.6142194655986,138.94555525197754)" fill="#7DA6D2"><circle r="2" stroke="#FFFFFF" stroke-width="1" fill="#7DA6D2"></circle><text dy="0.31em" x="6" text-anchor="start" transform="rotate(73.32703213610596)" style="font-size: 0.43em;" fill="#7DA6D2">Unrealized opportunity</text></g><g class="node node-1" transform="translate(34.96845526704605,140.76511543080534)" fill="#7DA6D2"><circle r="2" stroke="#FFFFFF" stroke-width="1" fill="#7DA6D2"></circle><text dy="0.31em" x="6" text-anchor="start" transform="rotate(76.04914933837435)" style="font-size: 0.43em;" fill="#7DA6D2">Insufficiently acknowledged</text></g><g class="node node-1" transform="translate(28.24377541975689,142.26700157116437)" fill="#7DA6D2"><circle r="2" stroke="#FFFFFF" stroke-width="1" fill="#7DA6D2"></circle><text dy="0.31em" x="6" text-anchor="start" transform="rotate(78.77126654064277)" style="font-size: 0.43em;" fill="#7DA6D2">Sparse</text></g><g class="node node-1" transform="translate(21.455355957920904,143.44782426628248)" fill="#7DA6D2"><circle r="2" stroke="#FFFFFF" stroke-width="1" fill="#7DA6D2"></circle><text dy="0.31em" x="6" text-anchor="start" transform="rotate(81.4933837429112)" style="font-size: 0.43em;" fill="#7DA6D2">Shortfall</text></g><g class="node node-1" transform="translate(14.618516761173483,144.3049186747099)" fill="#7DA6D2"><circle r="2" stroke="#FFFFFF" stroke-width="1" fill="#7DA6D2"></circle><text dy="0.31em" x="6" text-anchor="start" transform="rotate(84.21550094517963)" style="font-size: 0.43em;" fill="#7DA6D2">Needs to be elaborated further</text></g><g class="node node-1" transform="translate(7.748686981200003,144.83635053424513)" fill="#7DA6D2"><circle r="2" stroke="#FFFFFF" stroke-width="1" fill="#7DA6D2"></circle><text dy="0.31em" x="6" text-anchor="start" transform="rotate(86.93761814744805)" style="font-size: 0.43em;" fill="#7DA6D2">Lacuna</text></g><g class="node node-1" transform="translate(0.8613702217387053,145.04092052711349)" fill="#7DA6D2"><circle r="2" stroke="#FFFFFF" stroke-width="1" fill="#7DA6D2"></circle><text dy="0.31em" x="6" text-anchor="start" transform="rotate(89.65973534971644)" style="font-size: 0.43em;" fill="#7DA6D2">Not found</text></g><g class="node node-1" transform="translate(-12.903547577600992,144.46836693866217)" fill="#7DA6D2"><circle r="2" stroke="#FFFFFF" stroke-width="1" fill="#7DA6D2"></circle><text dy="0.31em" x="-6" text-anchor="end" transform="rotate(275.1039697542533)" style="font-size: 0.43em;" fill="#7DA6D2">Further clarification</text></g><g class="node node-1" transform="translate(-19.750084408046945,143.69253547726956)" fill="#7DA6D2"><circle r="2" stroke="#FFFFFF" stroke-width="1" fill="#7DA6D2"></circle><text dy="0.31em" x="-6" text-anchor="end" transform="rotate(277.82608695652175)" style="font-size: 0.43em;" fill="#7DA6D2">Not firmly established</text></g><g class="node node-1" transform="translate(-26.552049903792586,142.59242347305081)" fill="#7DA6D2"><circle r="2" stroke="#FFFFFF" stroke-width="1" fill="#7DA6D2"></circle><text dy="0.31em" x="-6" text-anchor="end" transform="rotate(280.5482041587902)" style="font-size: 0.43em;" fill="#7DA6D2">Conflicting evidence/views</text></g><g class="node node-1" transform="translate(-33.29409361496287,141.17051362224845)" fill="#7DA6D2"><circle r="2" stroke="#FFFFFF" stroke-width="1" fill="#7DA6D2"></circle><text dy="0.31em" x="-6" text-anchor="end" transform="rotate(283.2703213610587)" style="font-size: 0.43em;" fill="#7DA6D2">Contradiction/contradictory</text></g><g class="node node-1" transform="translate(-39.96100032117668,139.4300148437999)" fill="#7DA6D2"><circle r="2" stroke="#FFFFFF" stroke-width="1" fill="#7DA6D2"></circle><text dy="0.31em" x="-6" text-anchor="end" transform="rotate(285.9924385633271)" style="font-size: 0.43em;" fill="#7DA6D2">Not explored systematically</text></g><g class="node node-1" transform="translate(-46.53772436875075,137.37485503755602)" fill="#7DA6D2"><circle r="2" stroke="#FFFFFF" stroke-width="1" fill="#7DA6D2"></circle><text dy="0.31em" x="-6" text-anchor="end" transform="rotate(288.71455576559543)" style="font-size: 0.43em;" fill="#7DA6D2">Remains unclear</text></g><g class="node node-1" transform="translate(-53.009423625231356,135.00967221992693)" fill="#7DA6D2"><circle r="2" stroke="#FFFFFF" stroke-width="1" fill="#7DA6D2"></circle><text dy="0.31em" x="-6" text-anchor="end" transform="rotate(291.4366729678639)" style="font-size: 0.43em;" fill="#7DA6D2">Not sufficiently conceptualised</text></g><g class="node node-1" transform="translate(-59.36149297462603,132.3398040569608)" fill="#7DA6D2"><circle r="2" stroke="#FFFFFF" stroke-width="1" fill="#7DA6D2"></circle><text dy="0.31em" x="-6" text-anchor="end" transform="rotate(294.15879017013236)" style="font-size: 0.43em;" fill="#7DA6D2">Do not agree</text></g><g class="node node-1" transform="translate(-65.5795972777444,129.37127581847605)" fill="#7DA6D2"><circle r="2" stroke="#FFFFFF" stroke-width="1" fill="#7DA6D2"></circle><text dy="0.31em" x="-6" text-anchor="end" transform="rotate(296.8809073724008)" style="font-size: 0.43em;" fill="#7DA6D2">Limited/no agreement</text></g><g class="node node-1" transform="translate(-71.64970372326412,126.11078678043295)" fill="#7DA6D2"><circle r="2" stroke="#FFFFFF" stroke-width="1" fill="#7DA6D2"></circle><text dy="0.31em" x="-6" text-anchor="end" transform="rotate(299.60302457466923)" style="font-size: 0.43em;" fill="#7DA6D2">Underdeveloped</text></g><g class="node node-1" transform="translate(-77.5581134965139,122.56569510622954)" fill="#7DA6D2"><circle r="2" stroke="#FFFFFF" stroke-width="1" fill="#7DA6D2"></circle><text dy="0.31em" x="-6" text-anchor="end" transform="rotate(302.32514177693764)" style="font-size: 0.43em;" fill="#7DA6D2">Fragmented</text></g><g class="node node-1" transform="translate(-83.29149269450325,118.74400124104316)" fill="#7DA6D2"><circle r="2" stroke="#FFFFFF" stroke-width="1" fill="#7DA6D2"></circle><text dy="0.31em" x="-6" text-anchor="end" transform="rotate(305.0472589792061)" style="font-size: 0.43em;" fill="#7DA6D2">Requires further development/investigation</text></g><g class="node node-1" transform="translate(-88.83690241743206,114.65432985669143)" fill="#7DA6D2"><circle r="2" stroke="#FFFFFF" stroke-width="1" fill="#7DA6D2"></circle><text dy="0.31em" x="-6" text-anchor="end" transform="rotate(307.7693761814745)" style="font-size: 0.43em;" fill="#7DA6D2">Controversy/controversial</text></g><g class="node node-1" transform="translate(-94.18182796877029,110.30591038775894)" fill="#7DA6D2"><circle r="2" stroke="#FFFFFF" stroke-width="1" fill="#7DA6D2"></circle><text dy="0.31em" x="-6" text-anchor="end" transform="rotate(310.4914933837429)" style="font-size: 0.43em;" fill="#7DA6D2">Inconclusive</text></g><g class="node node-1" transform="translate(-99.31420709800932,105.70855620291609)" fill="#7DA6D2"><circle r="2" stroke="#FFFFFF" stroke-width="1" fill="#7DA6D2"></circle><text dy="0.31em" x="-6" text-anchor="end" transform="rotate(313.2136105860114)" style="font-size: 0.43em;" fill="#7DA6D2">Lack of clarity</text></g><g class="node node-1" transform="translate(-104.22245722234823,100.87264245843443)" fill="#7DA6D2"><circle r="2" stroke="#FFFFFF" stroke-width="1" fill="#7DA6D2"></circle><text dy="0.31em" x="-6" text-anchor="end" transform="rotate(315.9357277882798)" style="font-size: 0.43em;" fill="#7DA6D2">Whilst some studiesothers..</text></g><g class="node node-1" transform="translate(-108.89550156588245,95.80908268387836)" fill="#7DA6D2"><circle r="2" stroke="#FFFFFF" stroke-width="1" fill="#7DA6D2"></circle><text dy="0.31em" x="-6" text-anchor="end" transform="rotate(318.65784499054826)" style="font-size: 0.43em;" fill="#7DA6D2">Increasing concern</text></g><g class="node node-1" transform="translate(-113.3227941573036,90.5293041528142)" fill="#7DA6D2"><circle r="2" stroke="#FFFFFF" stroke-width="1" fill="#7DA6D2"></circle><text dy="0.31em" x="-6" text-anchor="end" transform="rotate(321.37996219281666)" style="font-size: 0.43em;" fill="#7DA6D2">Inconsistency</text></g><g class="node node-1" transform="translate(-117.49434362969752,85.0452220941183)" fill="#7DA6D2"><circle r="2" stroke="#FFFFFF" stroke-width="1" fill="#7DA6D2"></circle><text dy="0.31em" x="-6" text-anchor="end" transform="rotate(324.1020793950851)" style="font-size: 0.43em;" fill="#7DA6D2">Seek deeper understanding</text></g><g class="node node-1" transform="translate(-121.40073576872904,79.36921280208456)" fill="#7DA6D2"><circle r="2" stroke="#FFFFFF" stroke-width="1" fill="#7DA6D2"></circle><text dy="0.31em" x="-6" text-anchor="end" transform="rotate(326.82419659735353)" style="font-size: 0.43em;" fill="#7DA6D2">Modest support</text></g><g class="node node-1" transform="translate(-125.03315475832852,73.51408570601433)" fill="#7DA6D2"><circle r="2" stroke="#FFFFFF" stroke-width="1" fill="#7DA6D2"></circle><text dy="0.31em" x="-6" text-anchor="end" transform="rotate(329.54631379962194)" style="font-size: 0.43em;" fill="#7DA6D2">Dispute/disputed</text></g><g class="node node-1" transform="translate(-128.38340307593296,67.49305446232134)" fill="#7DA6D2"><circle r="2" stroke="#FFFFFF" stroke-width="1" fill="#7DA6D2"></circle><text dy="0.31em" x="-6" text-anchor="end" transform="rotate(332.26843100189035)" style="font-size: 0.43em;" fill="#7DA6D2">At odds with</text></g><g class="node node-1" transform="translate(-131.4439199923826,61.31970713439089)" fill="#7DA6D2"><circle r="2" stroke="#FFFFFF" stroke-width="1" fill="#7DA6D2"></circle><text dy="0.31em" x="-6" text-anchor="end" transform="rotate(334.9905482041588)" style="font-size: 0.43em;" fill="#7DA6D2">Disparity</text></g><g class="node node-1" transform="translate(-134.20779863472328,55.007975527489855)" fill="#7DA6D2"><circle r="2" stroke="#FFFFFF" stroke-width="1" fill="#7DA6D2"></circle><text dy="0.31em" x="-6" text-anchor="end" transform="rotate(337.7126654064273)" style="font-size: 0.43em;" fill="#7DA6D2">Few studies address</text></g><g class="node node-1" transform="translate(-136.66880157340808,48.572103747930896)" fill="#7DA6D2"><circle r="2" stroke="#FFFFFF" stroke-width="1" fill="#7DA6D2"></circle><text dy="0.31em" x="-6" text-anchor="end" transform="rotate(340.4347826086956)" style="font-size: 0.43em;" fill="#7DA6D2">Contradictory or inconsistent findings</text></g><g class="node node-1" transform="translate(-138.82137489872144,42.02661605744597)" fill="#7DA6D2"><circle r="2" stroke="#FFFFFF" stroke-width="1" fill="#7DA6D2"></circle><text dy="0.31em" x="-6" text-anchor="end" transform="rotate(343.15689981096415)" style="font-size: 0.43em;" fill="#7DA6D2">Mixed findings</text></g><g class="node node-1" transform="translate(-140.66066075465795,35.38628409531544)" fill="#7DA6D2"><circle r="2" stroke="#FFFFFF" stroke-width="1" fill="#7DA6D2"></circle><text dy="0.31em" x="-6" text-anchor="end" transform="rotate(345.87901701323256)" style="font-size: 0.43em;" fill="#7DA6D2">Literature is divided</text></g><g class="node node-1" transform="translate(-142.18250830197042,28.666093542222644)" fill="#7DA6D2"><circle r="2" stroke="#FFFFFF" stroke-width="1" fill="#7DA6D2"></circle><text dy="0.31em" x="-6" text-anchor="end" transform="rotate(348.60113421550096)" style="font-size: 0.43em;" fill="#7DA6D2">Clarify</text></g><g class="node node-1" transform="translate(-143.38348308564636,21.88121030106698)" fill="#7DA6D2"><circle r="2" stroke="#FFFFFF" stroke-width="1" fill="#7DA6D2"></circle><text dy="0.31em" x="-6" text-anchor="end" transform="rotate(351.3232514177694)" style="font-size: 0.43em;" fill="#7DA6D2">Poor understanding</text></g><g class="node node-1" transform="translate(-144.26087478567163,15.046946271058541)" fill="#7DA6D2"><circle r="2" stroke="#FFFFFF" stroke-width="1" fill="#7DA6D2"></circle><text dy="0.31em" x="-6" text-anchor="end" transform="rotate(354.04536862003783)" style="font-size: 0.43em;" fill="#7DA6D2">More complete understanding [needed]</text></g><g class="node node-1" transform="translate(-144.81270333359103,8.178724792331927)" fill="#7DA6D2"><circle r="2" stroke="#FFFFFF" stroke-width="1" fill="#7DA6D2"></circle><text dy="0.31em" x="-6" text-anchor="end" transform="rotate(356.7674858223063)" style="font-size: 0.43em;" fill="#7DA6D2">Argument</text></g><g class="node node-1" transform="translate(-145.0377233810608,1.2920458390645875)" fill="#7DA6D2"><circle r="2" stroke="#FFFFFF" stroke-width="1" fill="#7DA6D2"></circle><text dy="0.31em" x="-6" text-anchor="end" transform="rotate(359.4896030245747)" style="font-size: 0.43em;" fill="#7DA6D2">Not fully understood</text></g><g class="node node-1" transform="translate(-144.93542711030946,-5.5975489603507445)" fill="#7DA6D2"><circle r="2" stroke="#FFFFFF" stroke-width="1" fill="#7DA6D2"></circle><text dy="0.31em" x="-6" text-anchor="end" transform="rotate(362.21172022684317)" style="font-size: 0.43em;" fill="#7DA6D2">Ongoing debate</text></g><g class="node node-1" transform="translate(-144.50604538016418,-12.47451139713618)" fill="#7DA6D2"><circle r="2" stroke="#FFFFFF" stroke-width="1" fill="#7DA6D2"></circle><text dy="0.31em" x="-6" text-anchor="end" transform="rotate(364.93383742911163)" style="font-size: 0.43em;" fill="#7DA6D2">Need for deeper understanding</text></g><g class="node node-1" transform="translate(-143.75054720505614,-19.32332177081036)" fill="#7DA6D2"><circle r="2" stroke="#FFFFFF" stroke-width="1" fill="#7DA6D2"></circle><text dy="0.31em" x="-6" text-anchor="end" transform="rotate(367.65595463138)" style="font-size: 0.43em;" fill="#7DA6D2">Past studies mistakenly</text></g><g class="node node-1" transform="translate(-142.67063756818098,-26.128523913533567)" fill="#7DA6D2"><circle r="2" stroke="#FFFFFF" stroke-width="1" fill="#7DA6D2"></circle><text dy="0.31em" x="-6" text-anchor="end" transform="rotate(370.37807183364845)" style="font-size: 0.43em;" fill="#7DA6D2">Inadequately explained</text></g><g class="node node-2" transform="translate(-139.54805894701101,-39.546805561674454)" fill="#7AB439"><circle r="2" stroke="#FFFFFF" stroke-width="1" fill="#7AB439"></circle><text dy="0.31em" x="-6" text-anchor="end" transform="rotate(375.8223062381853)" style="font-size: 0.43em;" fill="#7AB439">Extensions of earlier work</text></g><g class="node node-2" transform="translate(-137.51243689446477,-46.129603134616204)" fill="#7AB439"><circle r="2" stroke="#FFFFFF" stroke-width="1" fill="#7AB439"></circle><text dy="0.31em" x="-6" text-anchor="end" transform="rotate(378.5444234404537)" style="font-size: 0.43em;" fill="#7AB439">Change of focus</text></g><g class="node node-2" transform="translate(-135.166481340367,-52.60829695091422)" fill="#7AB439"><circle r="2" stroke="#FFFFFF" stroke-width="1" fill="#7AB439"></circle><text dy="0.31em" x="-6" text-anchor="end" transform="rotate(381.2665406427222)" style="font-size: 0.43em;" fill="#7AB439">Different paradigm</text></g><g class="node node-2" transform="translate(-132.51548655931595,-58.96826610948556)" fill="#7AB439"><circle r="2" stroke="#FFFFFF" stroke-width="1" fill="#7AB439"></circle><text dy="0.31em" x="-6" text-anchor="end" transform="rotate(383.9886578449906)" style="font-size: 0.43em;" fill="#7AB439">Stretches theory</text></g><g class="node node-2" transform="translate(-129.56543522830844,-65.19515764311302)" fill="#7AB439"><circle r="2" stroke="#FFFFFF" stroke-width="1" fill="#7AB439"></circle><text dy="0.31em" x="-6" text-anchor="end" transform="rotate(386.710775047259)" style="font-size: 0.43em;" fill="#7AB439">Patterns new to existing theory</text></g><g class="node node-2" transform="translate(-126.32298492523337,-71.2749189097442)" fill="#7AB439"><circle r="2" stroke="#FFFFFF" stroke-width="1" fill="#7AB439"></circle><text dy="0.31em" x="-6" text-anchor="end" transform="rotate(389.43289224952747)" style="font-size: 0.43em;" fill="#7AB439">From a different side of a dyad</text></g><g class="node node-2" transform="translate(-122.79545310427083,-77.19382930602791)" fill="#7AB439"><circle r="2" stroke="#FFFFFF" stroke-width="1" fill="#7AB439"></circle><text dy="0.31em" x="-6" text-anchor="end" transform="rotate(392.1550094517959)" style="font-size: 0.43em;" fill="#7AB439">Problem from a different agents perspective</text></g><g class="node node-2" transform="translate(-118.9908005821043,-82.93853123151649)" fill="#7AB439"><circle r="2" stroke="#FFFFFF" stroke-width="1" fill="#7AB439"></circle><text dy="0.31em" x="-6" text-anchor="end" transform="rotate(394.87712665406434)" style="font-size: 0.43em;" fill="#7AB439">Different point of view</text></g><g class="node node-2" transform="translate(-114.91761357221428,-88.49606023365436)" fill="#7AB439"><circle r="2" stroke="#FFFFFF" stroke-width="1" fill="#7AB439"></circle><text dy="0.31em" x="-6" text-anchor="end" transform="rotate(397.59924385633275)" style="font-size: 0.43em;" fill="#7AB439">Compliments</text></g><g class="node node-2" transform="translate(-110.58508430779663,-93.8538742655244)" fill="#7AB439"><circle r="2" stroke="#FFFFFF" stroke-width="1" fill="#7AB439"></circle><text dy="0.31em" x="-6" text-anchor="end" transform="rotate(400.3213610586012)" style="font-size: 0.43em;" fill="#7AB439">Extends understanding</text></g><g class="node node-2" transform="translate(-106.00299029703565,-98.99988199032317)" fill="#7AB439"><circle r="2" stroke="#FFFFFF" stroke-width="1" fill="#7AB439"></circle><text dy="0.31em" x="-6" text-anchor="end" transform="rotate(403.0434782608696)" style="font-size: 0.43em;" fill="#7AB439">Compliments previous studies</text></g><g class="node node-2" transform="translate(-101.18167225754877,-103.92247006868793)" fill="#7AB439"><circle r="2" stroke="#FFFFFF" stroke-width="1" fill="#7AB439"></circle><text dy="0.31em" x="-6" text-anchor="end" transform="rotate(405.76559546313814)" style="font-size: 0.43em;" fill="#7AB439">Not been systematically examined</text></g><g class="node node-2" transform="translate(-96.13201077979821,-108.61052936729529)" fill="#7AB439"><circle r="2" stroke="#FFFFFF" stroke-width="1" fill="#7AB439"></circle><text dy="0.31em" x="-6" text-anchor="end" transform="rotate(408.48771266540643)" style="font-size: 0.43em;" fill="#7AB439">Extends framework</text></g><g class="node node-2" transform="translate(-90.86540177213512,-113.05348002958519)" fill="#7AB439"><circle r="2" stroke="#FFFFFF" stroke-width="1" fill="#7AB439"></circle><text dy="0.31em" x="-6" text-anchor="end" transform="rotate(411.2098298676749)" style="font-size: 0.43em;" fill="#7AB439">Extend extant research</text></g><g class="node node-2" transform="translate(-79.72934597756671,-121.16452441206054)" fill="#7AB439"><circle r="2" stroke="#FFFFFF" stroke-width="1" fill="#7AB439"></circle><text dy="0.31em" x="-6" text-anchor="end" transform="rotate(416.65406427221177)" style="font-size: 0.43em;" fill="#7AB439">Differentiated replication</text></g><g class="node node-3" transform="translate(-67.87397408175183,-128.18242558307685)" fill="#8C9292"><circle r="2" stroke="#FFFFFF" stroke-width="1" fill="#8C9292"></circle><text dy="0.31em" x="6" text-anchor="start" transform="rotate(422.09829867674864)" style="font-size: 0.43em;" fill="#8C9292">Exact Replication</text></g><g class="node node-3" transform="translate(-53.81027126552169,-134.69248417169504)" fill="#8C9292"><circle r="2" stroke="#FFFFFF" stroke-width="1" fill="#8C9292"></circle><text dy="0.31em" x="6" text-anchor="start" transform="rotate(428.2230623818526)" style="font-size: 0.43em;" fill="#8C9292">Close Replication</text></g><g class="node node-4" transform="translate(-40.78832916520622,-139.19023956413804)"><circle r="2" stroke="#FFFFFF" stroke-width="1"></circle><text dy="0.31em" x="-6" text-anchor="end" transform="rotate(433.6672967863894)" style="font-size: 0.43em;">Systematic review</text></g><g class="node node-4" transform="translate(-27.39839581208712,-142.43222420834252)"><circle r="2" stroke="#FFFFFF" stroke-width="1"></circle><text dy="0.31em" x="-6" text-anchor="end" transform="rotate(439.11153119092626)" style="font-size: 0.43em;">Narrative review</text></g><g class="node node-4" transform="translate(-20.60308350302286,-143.57271166965822)"><circle r="2" stroke="#FFFFFF" stroke-width="1"></circle><text dy="0.31em" x="-6" text-anchor="end" transform="rotate(441.8336483931947)" style="font-size: 0.43em;">Conventional review</text></g><g class="node node-4" transform="translate(-6.88841018730417,-144.87981360804824)"><circle r="2" stroke="#FFFFFF" stroke-width="1"></circle><text dy="0.31em" x="-6" text-anchor="end" transform="rotate(447.27788279773165)" style="font-size: 0.43em;">Meta-analysis</text></g><g class="node node-undefined"><circle r="0" stroke="#FFFFFF" stroke-width="1"></circle><text dy="0.31em" x="-6" text-anchor="end" transform="rotate(421.077504725898)" style="font-size: 0.43em;"></text></g><g class="node node-undefined"><circle r="0" stroke="#FFFFFF" stroke-width="1"></circle><text dy="0.31em" x="-6" text-anchor="end" transform="rotate(423.1190926275993)" style="font-size: 0.43em;"></text></g><g class="node node-undefined"><circle r="0" stroke="#FFFFFF" stroke-width="1"></circle><text dy="0.31em" x="-6" text-anchor="end" transform="rotate(427.2022684310019)" style="font-size: 0.43em;"></text></g><g class="node node-undefined"><circle r="0" stroke="#FFFFFF" stroke-width="1"></circle><text dy="0.31em" x="-6" text-anchor="end" transform="rotate(429.2438563327033)" style="font-size: 0.43em;"></text></g></g></svg>